<mxfile host="65bd71144e">
    <diagram id="7kgsfHnpjw9Z4Y_bNZGx" name="Page-1">
        <mxGraphModel dx="365" dy="550" grid="1" gridSize="10" guides="1" tooltips="1" connect="1" arrows="1" fold="1" page="1" pageScale="1" pageWidth="850" pageHeight="1100" math="0" shadow="0">
            <root>
                <mxCell id="0"/>
                <mxCell id="1" parent="0"/>
                <mxCell id="4" style="edgeStyle=none;html=1;entryX=0.5;entryY=0;entryDx=0;entryDy=0;" edge="1" parent="1" source="2" target="3">
                    <mxGeometry relative="1" as="geometry"/>
                </mxCell>
                <mxCell id="2" value="START" style="ellipse;whiteSpace=wrap;html=1;fillColor=#f8cecc;gradientColor=#ea6b66;strokeColor=#b85450;" vertex="1" parent="1">
                    <mxGeometry x="365" y="140" width="120" height="80" as="geometry"/>
                </mxCell>
                <mxCell id="6" style="edgeStyle=none;html=1;entryX=0.5;entryY=0;entryDx=0;entryDy=0;" edge="1" parent="1" source="3" target="5">
                    <mxGeometry relative="1" as="geometry"/>
                </mxCell>
                <mxCell id="3" value="int c" style="rounded=0;whiteSpace=wrap;html=1;fillColor=#dae8fc;gradientColor=#7ea6e0;strokeColor=#6c8ebf;" vertex="1" parent="1">
                    <mxGeometry x="365" y="260" width="120" height="40" as="geometry"/>
                </mxCell>
                <mxCell id="14" style="edgeStyle=none;html=1;entryX=0.5;entryY=0;entryDx=0;entryDy=0;" edge="1" parent="1" source="5" target="7">
                    <mxGeometry relative="1" as="geometry"/>
                </mxCell>
                <mxCell id="28" style="edgeStyle=none;html=1;entryX=0.5;entryY=0;entryDx=0;entryDy=0;exitX=0;exitY=0.5;exitDx=0;exitDy=0;rounded=0;curved=0;" edge="1" parent="1" source="5" target="27">
                    <mxGeometry relative="1" as="geometry">
                        <Array as="points">
                            <mxPoint x="260" y="390"/>
                            <mxPoint x="260" y="890"/>
                            <mxPoint x="260" y="1240"/>
                            <mxPoint x="260" y="1400"/>
                            <mxPoint x="260" y="1440"/>
                            <mxPoint x="260" y="1480"/>
                            <mxPoint x="260" y="1510"/>
                            <mxPoint x="350" y="1510"/>
                            <mxPoint x="424" y="1510"/>
                        </Array>
                    </mxGeometry>
                </mxCell>
                <mxCell id="5" value="c = getchar != EOF" style="rhombus;whiteSpace=wrap;html=1;fillColor=#f5f5f5;gradientColor=#b3b3b3;strokeColor=#666666;" vertex="1" parent="1">
                    <mxGeometry x="366" y="340" width="118" height="100" as="geometry"/>
                </mxCell>
                <mxCell id="15" style="edgeStyle=none;html=1;entryX=0.5;entryY=0;entryDx=0;entryDy=0;" edge="1" parent="1" source="7" target="12">
                    <mxGeometry relative="1" as="geometry"/>
                </mxCell>
                <mxCell id="17" style="edgeStyle=none;html=1;entryX=0.5;entryY=0;entryDx=0;entryDy=0;rounded=0;curved=0;" edge="1" parent="1" source="7" target="8">
                    <mxGeometry relative="1" as="geometry">
                        <Array as="points">
                            <mxPoint x="310" y="540"/>
                            <mxPoint x="310" y="680"/>
                            <mxPoint x="310" y="760"/>
                            <mxPoint x="425" y="760"/>
                        </Array>
                    </mxGeometry>
                </mxCell>
                <mxCell id="7" value="c == \t" style="rhombus;whiteSpace=wrap;html=1;fillColor=#f5f5f5;gradientColor=#b3b3b3;strokeColor=#666666;" vertex="1" parent="1">
                    <mxGeometry x="366" y="490" width="118" height="100" as="geometry"/>
                </mxCell>
                <mxCell id="20" style="edgeStyle=none;html=1;entryX=0.5;entryY=0;entryDx=0;entryDy=0;rounded=0;curved=0;" edge="1" parent="1" source="8" target="9">
                    <mxGeometry relative="1" as="geometry">
                        <Array as="points">
                            <mxPoint x="300" y="830"/>
                            <mxPoint x="300" y="930"/>
                            <mxPoint x="300" y="990"/>
                            <mxPoint x="300" y="1020"/>
                            <mxPoint x="360" y="1020"/>
                            <mxPoint x="425" y="1020"/>
                        </Array>
                    </mxGeometry>
                </mxCell>
                <mxCell id="24" style="edgeStyle=none;html=1;entryX=0.5;entryY=0;entryDx=0;entryDy=0;" edge="1" parent="1" source="8" target="13">
                    <mxGeometry relative="1" as="geometry"/>
                </mxCell>
                <mxCell id="8" value="c == \\" style="rhombus;whiteSpace=wrap;html=1;fillColor=#f5f5f5;gradientColor=#b3b3b3;strokeColor=#666666;" vertex="1" parent="1">
                    <mxGeometry x="366" y="780" width="118" height="100" as="geometry"/>
                </mxCell>
                <mxCell id="19" style="edgeStyle=none;html=1;entryX=0.5;entryY=0;entryDx=0;entryDy=0;" edge="1" parent="1" source="9" target="18">
                    <mxGeometry relative="1" as="geometry"/>
                </mxCell>
                <mxCell id="40" style="edgeStyle=none;html=1;entryX=0.5;entryY=0;entryDx=0;entryDy=0;rounded=0;curved=0;" edge="1" parent="1" source="9" target="39">
                    <mxGeometry relative="1" as="geometry">
                        <Array as="points">
                            <mxPoint x="280" y="1090"/>
                            <mxPoint x="280" y="1190"/>
                            <mxPoint x="280" y="1250"/>
                            <mxPoint x="424" y="1250"/>
                        </Array>
                    </mxGeometry>
                </mxCell>
                <mxCell id="9" value="c == \b" style="rhombus;whiteSpace=wrap;html=1;fillColor=#f5f5f5;gradientColor=#b3b3b3;strokeColor=#666666;" vertex="1" parent="1">
                    <mxGeometry x="366" y="1040" width="118" height="100" as="geometry"/>
                </mxCell>
                <mxCell id="16" style="edgeStyle=none;html=1;entryX=1;entryY=0.5;entryDx=0;entryDy=0;rounded=0;curved=0;" edge="1" parent="1" source="12" target="5">
                    <mxGeometry relative="1" as="geometry">
                        <Array as="points">
                            <mxPoint x="425" y="740"/>
                            <mxPoint x="560" y="740"/>
                            <mxPoint x="560" y="480"/>
                            <mxPoint x="560" y="390"/>
                            <mxPoint x="520" y="390"/>
                        </Array>
                    </mxGeometry>
                </mxCell>
                <mxCell id="12" value="print \\t" style="shape=parallelogram;perimeter=parallelogramPerimeter;whiteSpace=wrap;html=1;fixedSize=1;fillColor=#dae8fc;gradientColor=#7ea6e0;strokeColor=#6c8ebf;" vertex="1" parent="1">
                    <mxGeometry x="365" y="650" width="120" height="60" as="geometry"/>
                </mxCell>
                <mxCell id="25" style="edgeStyle=none;html=1;entryX=1;entryY=0.5;entryDx=0;entryDy=0;rounded=0;curved=0;" edge="1" parent="1" source="13" target="5">
                    <mxGeometry relative="1" as="geometry">
                        <Array as="points">
                            <mxPoint x="425" y="1000"/>
                            <mxPoint x="510" y="1000"/>
                            <mxPoint x="560" y="1000"/>
                            <mxPoint x="560" y="650"/>
                            <mxPoint x="560" y="390"/>
                        </Array>
                    </mxGeometry>
                </mxCell>
                <mxCell id="13" value="print \\\\" style="shape=parallelogram;perimeter=parallelogramPerimeter;whiteSpace=wrap;html=1;fixedSize=1;fillColor=#dae8fc;gradientColor=#7ea6e0;strokeColor=#6c8ebf;" vertex="1" parent="1">
                    <mxGeometry x="365" y="910" width="120" height="60" as="geometry"/>
                </mxCell>
                <mxCell id="26" style="edgeStyle=none;html=1;entryX=1;entryY=0.5;entryDx=0;entryDy=0;rounded=0;curved=0;" edge="1" parent="1" source="18" target="5">
                    <mxGeometry relative="1" as="geometry">
                        <Array as="points">
                            <mxPoint x="425" y="1240"/>
                            <mxPoint x="560" y="1240"/>
                            <mxPoint x="560" y="790"/>
                            <mxPoint x="560" y="390"/>
                        </Array>
                    </mxGeometry>
                </mxCell>
                <mxCell id="18" value="\\b" style="shape=parallelogram;perimeter=parallelogramPerimeter;whiteSpace=wrap;html=1;fixedSize=1;fillColor=#dae8fc;gradientColor=#7ea6e0;strokeColor=#6c8ebf;" vertex="1" parent="1">
                    <mxGeometry x="365" y="1160" width="120" height="60" as="geometry"/>
                </mxCell>
                <mxCell id="43" style="edgeStyle=none;html=1;entryX=1;entryY=0.5;entryDx=0;entryDy=0;exitX=0.5;exitY=1;exitDx=0;exitDy=0;rounded=0;curved=0;" edge="1" parent="1" source="21" target="5">
                    <mxGeometry relative="1" as="geometry">
                        <Array as="points">
                            <mxPoint x="425" y="1480"/>
                            <mxPoint x="560" y="1480"/>
                            <mxPoint x="560" y="900"/>
                            <mxPoint x="560" y="390"/>
                        </Array>
                    </mxGeometry>
                </mxCell>
                <mxCell id="21" value="putchar(c)" style="shape=parallelogram;perimeter=parallelogramPerimeter;whiteSpace=wrap;html=1;fixedSize=1;fillColor=#dae8fc;gradientColor=#7ea6e0;strokeColor=#6c8ebf;" vertex="1" parent="1">
                    <mxGeometry x="365" y="1400" width="120" height="60" as="geometry"/>
                </mxCell>
                <mxCell id="27" value="END" style="ellipse;whiteSpace=wrap;html=1;fillColor=#f8cecc;gradientColor=#ea6b66;strokeColor=#b85450;" vertex="1" parent="1">
                    <mxGeometry x="364" y="1530" width="120" height="80" as="geometry"/>
                </mxCell>
                <mxCell id="29" value="TRUE" style="text;html=1;align=center;verticalAlign=middle;resizable=0;points=[];autosize=1;strokeColor=#82b366;fillColor=#d5e8d4;gradientColor=#97d077;" vertex="1" parent="1">
                    <mxGeometry x="430" y="440" width="60" height="30" as="geometry"/>
                </mxCell>
                <mxCell id="30" value="FALSE" style="text;html=1;align=center;verticalAlign=middle;resizable=0;points=[];autosize=1;strokeColor=#b85450;fillColor=#f8cecc;gradientColor=#ea6b66;" vertex="1" parent="1">
                    <mxGeometry x="306" y="400" width="60" height="30" as="geometry"/>
                </mxCell>
                <mxCell id="31" value="FALSE" style="text;html=1;align=center;verticalAlign=middle;resizable=0;points=[];autosize=1;strokeColor=#b85450;fillColor=#f8cecc;gradientColor=#ea6b66;" vertex="1" parent="1">
                    <mxGeometry x="316" y="550" width="60" height="30" as="geometry"/>
                </mxCell>
                <mxCell id="32" value="FALSE" style="text;html=1;align=center;verticalAlign=middle;resizable=0;points=[];autosize=1;strokeColor=#b85450;fillColor=#f8cecc;gradientColor=#ea6b66;" vertex="1" parent="1">
                    <mxGeometry x="306" y="840" width="60" height="30" as="geometry"/>
                </mxCell>
                <mxCell id="33" value="FALSE" style="text;html=1;align=center;verticalAlign=middle;resizable=0;points=[];autosize=1;strokeColor=#b85450;fillColor=#f8cecc;gradientColor=#ea6b66;" vertex="1" parent="1">
                    <mxGeometry x="300" y="1100" width="60" height="30" as="geometry"/>
                </mxCell>
                <mxCell id="35" value="TRUE" style="text;html=1;align=center;verticalAlign=middle;resizable=0;points=[];autosize=1;strokeColor=#82b366;fillColor=#d5e8d4;gradientColor=#97d077;" vertex="1" parent="1">
                    <mxGeometry x="440" y="590" width="60" height="30" as="geometry"/>
                </mxCell>
                <mxCell id="36" value="TRUE" style="text;html=1;align=center;verticalAlign=middle;resizable=0;points=[];autosize=1;strokeColor=#82b366;fillColor=#d5e8d4;gradientColor=#97d077;" vertex="1" parent="1">
                    <mxGeometry x="450" y="870" width="60" height="30" as="geometry"/>
                </mxCell>
                <mxCell id="37" value="TRUE" style="text;html=1;align=center;verticalAlign=middle;resizable=0;points=[];autosize=1;strokeColor=#82b366;fillColor=#d5e8d4;gradientColor=#97d077;" vertex="1" parent="1">
                    <mxGeometry x="460" y="1120" width="60" height="30" as="geometry"/>
                </mxCell>
                <mxCell id="42" style="edgeStyle=none;html=1;entryX=0.5;entryY=0;entryDx=0;entryDy=0;" edge="1" parent="1" source="39" target="21">
                    <mxGeometry relative="1" as="geometry"/>
                </mxCell>
                <mxCell id="39" value="c != \t &amp;amp;&amp;amp; c != \\&lt;div&gt;&amp;amp;&amp;amp; c != \b&amp;nbsp;&lt;/div&gt;" style="rhombus;whiteSpace=wrap;html=1;fillColor=#f5f5f5;gradientColor=#b3b3b3;strokeColor=#666666;" vertex="1" parent="1">
                    <mxGeometry x="365" y="1270" width="118" height="100" as="geometry"/>
                </mxCell>
                <mxCell id="44" value="TRUE" style="text;html=1;align=center;verticalAlign=middle;resizable=0;points=[];autosize=1;strokeColor=#82b366;fillColor=#d5e8d4;gradientColor=#97d077;" vertex="1" parent="1">
                    <mxGeometry x="450" y="1360" width="60" height="30" as="geometry"/>
                </mxCell>
            </root>
        </mxGraphModel>
    </diagram>
</mxfile>